<?xml version="1.0" encoding="utf-8"?>
<!-- Generator: Adobe Illustrator 24.1.2, SVG Export Plug-In . SVG Version: 6.00 Build 0)  -->
<svg version="1.1" id="Layer_1" xmlns="http://www.w3.org/2000/svg" xmlns:xlink="http://www.w3.org/1999/xlink" x="0px" y="0px"
	 viewBox="0 0 1200 400" style="enable-background:new 0 0 1200 400;" xml:space="preserve">
<style type="text/css">
	.st0{fill:#00599C;}
	.st1{fill:#6D6E71;}
</style>
<g>
	<g>
		<path class="st0" d="M265.26,153.02l-79.87-24.58c-1.16-0.35-2.4-0.35-3.56,0l-79.87,24.58c-2.69,0.81-4.48,3.34-4.36,6.14v45.96
			c0.12,34.63,18.07,66.76,47.49,85.03l35.33,21.69c1.9,1.1,4.24,1.1,6.14,0l35.33-21.69c29.52-18.21,47.56-50.35,47.74-85.03
			v-45.96C269.75,156.36,267.95,153.83,265.26,153.02z"/>
		<path class="st1" d="M293.34,312.91c-13.32,14.2-29.56,26.11-48.47,34.53c-19.92,8.87-40.71,13.06-61.17,13.06
			c-46.09-0.01-90.42-21.34-119.12-58.5c4.95-4.33,7.77-10.58,7.77-17.06c0-3.06-0.63-6.16-1.94-9.11
			c-3.75-8.42-12.03-13.39-20.67-13.38c-3.13,0-6.3,0.65-9.3,1.99c-8.46,3.76-13.53,12.05-13.53,20.75c0,3.06,0.63,6.17,1.95,9.13
			l0,0c3.74,8.39,12.01,13.37,20.65,13.36c1.55,0,3.12-0.15,4.67-0.48c30.82,41.09,79.21,64.7,129.51,64.69
			c22.01,0,44.4-4.51,65.8-14.03c20.93-9.33,38.83-22.62,53.39-38.5C299.22,318.12,295.93,315.92,293.34,312.91z M39.25,289.67
			c-0.66-1.48-0.96-3-0.96-4.5c0.01-4.31,2.5-8.46,6.78-10.35c1.56-0.69,3.14-1.02,4.68-1.02c4.35,0.02,8.43,2.47,10.27,6.62
			c0.66,1.47,0.96,2.98,0.96,4.5c0,4.29-2.52,8.46-6.8,10.37c-1.51,0.68-3.09,0.99-4.65,0.99
			C45.18,296.28,41.08,293.82,39.25,289.67 M32.56,249.92c1.77-0.79,3.59-1.35,5.42-1.73c-3.35-12.67-4.97-25.5-4.97-38.21
			c0.01-57.67,33.29-112.7,89.38-137.65c13.21-5.88,26.8-9.58,40.42-11.48c3.9,7.92,11.88,12.63,20.27,12.62
			c3.1,0,6.27-0.63,9.29-1.97c8.46-3.8,13.54-12.07,13.54-20.78c0-3.04-0.62-6.15-1.93-9.11c-3.75-8.41-12.03-13.38-20.66-13.37
			c-3.12,0-6.3,0.66-9.3,1.99c-8.04,3.57-12.97,11.23-13.44,19.45c-14.43,2.07-28.83,6.03-42.78,12.25
			c-60.32,26.84-96.15,86.03-96.14,148.04c0,14.29,1.94,28.74,5.89,42.98C29.06,251.8,30.71,250.75,32.56,249.92z M172.8,55.49
			c-0.66-1.48-0.97-2.99-0.97-4.51c0.01-4.3,2.51-8.46,6.77-10.34c1.56-0.7,3.14-1.01,4.69-1.01c4.34,0.01,8.43,2.46,10.28,6.62
			c0.65,1.46,0.94,2.97,0.94,4.48c0,4.29-2.52,8.49-6.79,10.39c-1.51,0.66-3.08,0.98-4.65,0.98
			C178.72,62.1,174.62,59.62,172.8,55.49 M334.71,267.97c7.09-18.43,10.89-38.13,10.88-58.15c0-22.01-4.51-44.39-14.03-65.79
			c-21.35-47.92-63.1-80.31-110.44-91.62c0.39,3.91-0.3,7.77-1.92,11.24c43.73,10.68,82.24,40.68,101.96,85
			c8.87,19.92,13.06,40.71,13.06,61.17c0,18.61-3.53,36.92-10.13,54.05c-0.85-0.09-1.71-0.18-2.57-0.18c-3.12,0-6.29,0.65-9.3,1.99
			c-8.48,3.75-13.54,12.04-13.54,20.74c0,3.07,0.63,6.19,1.95,9.15h0c3.75,8.37,12,13.35,20.65,13.34c3.1,0,6.27-0.63,9.29-1.98
			c8.46-3.79,13.54-12.06,13.54-20.77c0-3.04-0.62-6.15-1.93-9.11C340.5,273.27,337.85,270.22,334.71,267.97z M311.03,290.93
			c-0.67-1.49-0.98-3-0.98-4.51c0.01-4.32,2.51-8.46,6.78-10.34c1.56-0.69,3.14-1.02,4.68-1.02c4.35,0.02,8.44,2.46,10.28,6.63
			c0.65,1.47,0.95,2.97,0.95,4.48c0,4.29-2.52,8.48-6.79,10.38c-1.52,0.67-3.1,0.98-4.66,0.98
			C316.95,297.52,312.84,295.05,311.03,290.93"/>
	</g>
	<g>
		<path class="st0" d="M536.26,136.3v-2.28c0-13.88-3.99-16.73-23.59-16.73c-23.01,0-27.58,2.85-27.58,17.31
			c0,9.13,2.28,13.32,8.37,15.22c3.23,0.95,4.38,0.95,24.16,2.09c21.3,1.33,28.53,2.66,34.62,7.04c7.8,5.32,10.46,12.75,10.46,28.91
			c0,15.79-2.28,24.35-7.8,29.86c-7.61,7.42-17.31,9.51-43.75,9.51c-23.02,0-30.81-1.33-39.18-6.27c-4.75-2.86-8.75-8.94-10.08-15.6
			c-1.14-5.51-1.33-9.32-1.52-19.4h23.4c0,9.51,0.57,12.74,2.66,15.98c3.05,5.13,6.09,5.71,25.87,5.71
			c14.27,0,18.26-0.57,21.88-3.42c3.23-2.28,4.56-7.23,4.56-15.98c0-8.37-1.9-12.36-7.04-14.08c-3.05-1.14-3.05-1.14-24.16-2.47
			c-21.68-1.33-26.25-2.09-32.72-5.14c-10.08-4.94-14.08-14.08-14.08-31.57c0-15.03,3.23-24.35,10.08-29.29
			c7.8-5.9,17.69-7.61,41.28-7.61c23.77,0,34.05,2.47,40.32,9.51c4.94,5.52,7.23,13.13,7.23,24.16v4.56H536.26z"/>
		<path class="st0" d="M608.74,152.27h59.16v17.88h-59.16v35.76h62.96v20.16h-87.31V99.21h86.74v20.16h-62.39V152.27z"/>
		<path class="st0" d="M795.35,180.8v4.38c0,19.02-1.9,26.06-8.75,32.53c-3.99,3.8-10.65,7.04-17.69,8.37
			c-3.99,0.57-15.22,1.14-26.44,1.14c-21.87,0-27.77-0.95-36.14-5.71c-11.03-5.9-15.79-15.4-17.12-33.47
			c-0.57-7.23-0.95-22.83-0.95-34.43c0-26.44,2.47-36.14,11.03-44.32c9.51-9.13,19.02-11.22,49.84-11.22
			c20.16,0,28.15,1.71,34.61,7.23c5.33,4.56,8.56,11.22,9.7,20.54c0.38,3.05,0.57,6.85,0.76,15.6h-24.16
			c-0.38-20.35-2.66-22.44-24.35-22.44c-16.17,0-23.2,1.33-27.01,4.94c-3.24,3.24-4.57,7.8-4.95,17.5
			c-0.19,3.23-0.19,3.23-0.19,20.54c0,41.65,1.71,44.32,28.91,44.32c24.73,0,28.91-3.05,28.91-20.16c0-1.14,0-2.86-0.19-5.33H795.35
			z"/>
		<path class="st0" d="M921.28,99.21v84.45c0,15.6-1.9,24.16-6.66,30.43c-3.8,4.94-9.32,8.75-16.55,10.84
			c-4.94,1.52-14.84,2.28-29.48,2.28c-18.64,0-27.2-0.95-34.62-4.18c-13.69-5.9-18.07-15.02-18.07-38.04V99.21h24.35v85.78
			c0,18.45,3.8,21.31,28.53,21.31c24.72,0,28.15-2.66,28.15-22.25V99.21H921.28z"/>
		<path class="st0" d="M948.31,99.21h62.39c30.62,0,41.08,9.51,41.08,37.85c0,25.29-4.37,32.14-22.82,35.76v0.95
			c14.46,0.76,21.68,9.32,21.49,24.73v27.58h-24.54v-22.83c0.38-13.88-5.51-19.78-19.02-19.4h-34.24v42.23h-24.35V99.21z
			 M1006.71,163.12c7.61,0,12.55-1.14,15.4-3.8c3.99-3.23,4.95-7.04,4.95-17.88c0-17.88-3.05-21.31-18.64-21.31h-35.76v42.99
			H1006.71z"/>
		<path class="st0" d="M1098.59,152.27h59.16v17.88h-59.16v35.76h62.96v20.16h-87.31V99.21h86.74v20.16h-62.39V152.27z"/>
		<path class="st1" d="M479.39,321.19h-28.81v-50.03h28.81v8.69h-18.21v10.99h16.94v8.69h-16.94v12.9h18.21V321.19z"/>
		<path class="st1" d="M491.58,321.19v-50.03h10.61v41.27h20.29v8.76H491.58z"/>
		<path class="st1" d="M561.75,321.19h-28.81v-50.03h28.81v8.69h-18.21v10.99h16.94v8.69h-16.94v12.9h18.21V321.19z"/>
		<path class="st1" d="M595.19,279.27c-3.99,0-7.08,1.5-9.27,4.5c-2.19,3-3.29,7.18-3.29,12.54c0,11.16,4.18,16.73,12.56,16.73
			c3.52,0,7.77-0.88,12.76-2.64v8.9c-4.11,1.71-8.69,2.57-13.76,2.57c-7.28,0-12.84-2.21-16.7-6.62
			c-3.86-4.42-5.78-10.76-5.78-19.01c0-5.2,0.95-9.76,2.84-13.67c1.89-3.91,4.62-6.91,8.16-9c3.54-2.09,7.7-3.13,12.47-3.13
			c4.86,0,9.74,1.17,14.65,3.52l-3.42,8.62c-1.87-0.89-3.75-1.67-5.65-2.33S597.01,279.27,595.19,279.27z"/>
		<path class="st1" d="M639.65,321.19h-10.61v-41.2h-13.59v-8.83h37.78v8.83h-13.59V321.19z"/>
		<path class="st1" d="M673.3,301.99v19.2h-10.61v-50.03h14.58c6.8,0,11.83,1.24,15.09,3.72c3.26,2.47,4.89,6.23,4.89,11.27
			c0,2.94-0.81,5.56-2.43,7.85c-1.62,2.3-3.91,4.09-6.88,5.39c7.53,11.25,12.43,18.51,14.72,21.8h-11.77l-11.94-19.2H673.3z
			 M673.3,293.37h3.42c3.35,0,5.83-0.56,7.43-1.68c1.6-1.12,2.4-2.87,2.4-5.27c0-2.37-0.82-4.06-2.45-5.06
			c-1.63-1-4.16-1.51-7.58-1.51h-3.22V293.37z"/>
		<path class="st1" d="M756.12,296.11c0,8.28-2.05,14.65-6.16,19.1s-9.99,6.67-17.66,6.67s-13.55-2.22-17.66-6.67
			c-4.11-4.45-6.16-10.84-6.16-19.16s2.06-14.69,6.17-19.08c4.12-4.39,10.02-6.59,17.71-6.59c7.69,0,13.57,2.21,17.64,6.64
			C754.08,281.44,756.12,287.8,756.12,296.11z M719.6,296.11c0,5.59,1.06,9.8,3.18,12.63s5.29,4.24,9.51,4.24
			c8.46,0,12.7-5.62,12.7-16.87c0-11.27-4.21-16.91-12.63-16.91c-4.22,0-7.4,1.42-9.55,4.26
			C720.67,286.31,719.6,290.52,719.6,296.11z"/>
		<path class="st1" d="M812.63,321.19h-13.48l-21.77-37.85h-0.31c0.44,6.68,0.65,11.45,0.65,14.3v23.54h-9.48v-50.03h13.38
			l21.73,37.47h0.24c-0.34-6.5-0.51-11.1-0.51-13.79v-23.68h9.55V321.19z"/>
		<path class="st1" d="M886.11,321.19l-3.63-11.91h-18.24l-3.63,11.91h-11.43l17.66-50.24h12.97l17.73,50.24H886.11z M879.95,300.39
			c-3.35-10.79-5.24-16.9-5.67-18.31c-0.42-1.41-0.72-2.53-0.9-3.35c-0.75,2.92-2.91,10.14-6.47,21.66H879.95z"/>
		<path class="st1" d="M947.1,295.7c0,8.24-2.34,14.54-7.04,18.92c-4.68,4.38-11.45,6.57-20.31,6.57h-14.17v-50.03h15.71
			c8.17,0,14.51,2.16,19.03,6.47C944.84,281.94,947.1,287.96,947.1,295.7z M936.08,295.97c0-10.75-4.75-16.12-14.24-16.12h-5.65
			v32.58h4.55C930.97,312.43,936.08,306.95,936.08,295.97z"/>
		<path class="st1" d="M989.85,321.19l-3.63-11.91h-18.24l-3.63,11.91h-11.43l17.66-50.24h12.97l17.73,50.24H989.85z M983.69,300.39
			c-3.35-10.79-5.24-16.9-5.67-18.31c-0.42-1.41-0.72-2.53-0.9-3.35c-0.75,2.92-2.91,10.14-6.47,21.66H983.69z"/>
		<path class="st1" d="M1043.89,286.76c0,5.38-1.68,9.5-5.05,12.35c-3.37,2.85-8.15,4.28-14.36,4.28h-4.55v17.8h-10.61v-50.03h15.98
			c6.07,0,10.68,1.31,13.84,3.92C1042.32,277.69,1043.89,281.59,1043.89,286.76z M1019.94,294.7h3.49c3.26,0,5.71-0.65,7.32-1.94
			c1.62-1.29,2.43-3.16,2.43-5.63c0-2.49-0.68-4.32-2.04-5.51c-1.35-1.19-3.48-1.78-6.38-1.78h-4.83V294.7z"/>
		<path class="st1" d="M1074.4,321.19h-10.61v-41.2h-13.59v-8.83h37.78v8.83h-13.59V321.19z"/>
		<path class="st1" d="M1126.25,321.19h-28.81v-50.03h28.81v8.69h-18.21v10.99h16.94v8.69h-16.94v12.9h18.21V321.19z"/>
		<path class="st1" d="M1149.04,301.99v19.2h-10.61v-50.03h14.58c6.8,0,11.83,1.24,15.09,3.72c3.26,2.47,4.89,6.23,4.89,11.27
			c0,2.94-0.81,5.56-2.43,7.85c-1.62,2.3-3.91,4.09-6.88,5.39c7.53,11.25,12.43,18.51,14.72,21.8h-11.77l-11.94-19.2H1149.04z
			 M1149.04,293.37h3.42c3.35,0,5.83-0.56,7.43-1.68s2.4-2.87,2.4-5.27c0-2.37-0.82-4.06-2.45-5.06c-1.63-1-4.16-1.51-7.58-1.51
			h-3.22V293.37z"/>
	</g>
</g>
</svg>
