<svg version="1.1" id="Layer_1" xmlns="http://www.w3.org/2000/svg" x="0" y="0" viewBox="0 0 1200 400" xml:space="preserve"><style>.st0{fill:#00599c}.st1{fill:#6d6e71}</style><path class="st0" d="M265.26 153.02l-79.87-24.58c-1.16-.35-2.4-.35-3.56 0l-79.87 24.58a6.135 6.135 0 00-4.36 6.14v45.96c.12 34.63 18.07 66.76 47.49 85.03l35.33 21.69c1.9 1.1 4.24 1.1 6.14 0l35.33-21.69a100.515 100.515 0 0047.74-85.03v-45.96c.12-2.8-1.68-5.33-4.37-6.14z"/><path class="st1" d="M293.34 312.91c-13.32 14.2-29.56 26.11-48.47 34.53-19.92 8.87-40.71 13.06-61.17 13.06-46.09-.01-90.42-21.34-119.12-58.5 4.95-4.33 7.77-10.58 7.77-17.06 0-3.06-.63-6.16-1.94-9.11-3.75-8.42-12.03-13.39-20.67-13.38-3.13 0-6.3.65-9.3 1.99a22.735 22.735 0 00-13.53 20.75c0 3.06.63 6.17 1.95 9.13 3.74 8.39 12.01 13.37 20.65 13.36 1.55 0 3.12-.15 4.67-.48 30.82 41.09 79.21 64.7 129.51 64.69 22.01 0 44.4-4.51 65.8-14.03 20.93-9.33 38.83-22.62 53.39-38.5a21.787 21.787 0 01-9.54-6.45zM39.25 289.67c-.66-1.48-.96-3-.96-4.5.01-4.31 2.5-8.46 6.78-10.35 1.56-.69 3.14-1.02 4.68-1.02 4.35.02 8.43 2.47 10.27 6.62.66 1.47.96 2.98.96 4.5 0 4.29-2.52 8.46-6.8 10.37-1.51.68-3.09.99-4.65.99-4.35 0-8.45-2.46-10.28-6.61m-6.69-39.75c1.77-.79 3.59-1.35 5.42-1.73a149.36 149.36 0 01-4.97-38.21c.01-57.67 33.29-112.7 89.38-137.65 13.21-5.88 26.8-9.58 40.42-11.48a22.577 22.577 0 0020.27 12.62c3.1 0 6.27-.63 9.29-1.97 8.46-3.8 13.54-12.07 13.54-20.78 0-3.04-.62-6.15-1.93-9.11-3.75-8.41-12.03-13.38-20.66-13.37-3.12 0-6.3.66-9.3 1.99-8.04 3.57-12.97 11.23-13.44 19.45-14.43 2.07-28.83 6.03-42.78 12.25-60.32 26.84-96.15 86.03-96.14 148.04 0 14.29 1.94 28.74 5.89 42.98 1.51-1.15 3.16-2.2 5.01-3.03zM172.8 55.49c-.66-1.48-.97-2.99-.97-4.51.01-4.3 2.51-8.46 6.77-10.34 1.56-.7 3.14-1.01 4.69-1.01 4.34.01 8.43 2.46 10.28 6.62.65 1.46.94 2.97.94 4.48 0 4.29-2.52 8.49-6.79 10.39-1.51.66-3.08.98-4.65.98-4.35 0-8.45-2.48-10.27-6.61m161.91 212.48c7.09-18.43 10.89-38.13 10.88-58.15 0-22.01-4.51-44.39-14.03-65.79-21.35-47.92-63.1-80.31-110.44-91.62.39 3.91-.3 7.77-1.92 11.24 43.73 10.68 82.24 40.68 101.96 85 8.87 19.92 13.06 40.71 13.06 61.17 0 18.61-3.53 36.92-10.13 54.05-.85-.09-1.71-.18-2.57-.18-3.12 0-6.29.65-9.3 1.99a22.687 22.687 0 00-13.54 20.74c0 3.07.63 6.19 1.95 9.15 3.75 8.37 12 13.35 20.65 13.34 3.1 0 6.27-.63 9.29-1.98 8.46-3.79 13.54-12.06 13.54-20.77 0-3.04-.62-6.15-1.93-9.11-1.68-3.78-4.33-6.83-7.47-9.08zm-23.68 22.96c-.67-1.49-.98-3-.98-4.51.01-4.32 2.51-8.46 6.78-10.34 1.56-.69 3.14-1.02 4.68-1.02 4.35.02 8.44 2.46 10.28 6.63.65 1.47.95 2.97.95 4.48 0 4.29-2.52 8.48-6.79 10.38-1.52.67-3.1.98-4.66.98-4.34-.01-8.45-2.48-10.26-6.6"/><path class="st0" d="M536.26 136.3v-2.28c0-13.88-3.99-16.73-23.59-16.73-23.01 0-27.58 2.85-27.58 17.31 0 9.13 2.28 13.32 8.37 15.22 3.23.95 4.38.95 24.16 2.09 21.3 1.33 28.53 2.66 34.62 7.04 7.8 5.32 10.46 12.75 10.46 28.91 0 15.79-2.28 24.35-7.8 29.86-7.61 7.42-17.31 9.51-43.75 9.51-23.02 0-30.81-1.33-39.18-6.27-4.75-2.86-8.75-8.94-10.08-15.6-1.14-5.51-1.33-9.32-1.52-19.4h23.4c0 9.51.57 12.74 2.66 15.98 3.05 5.13 6.09 5.71 25.87 5.71 14.27 0 18.26-.57 21.88-3.42 3.23-2.28 4.56-7.23 4.56-15.98 0-8.37-1.9-12.36-7.04-14.08-3.05-1.14-3.05-1.14-24.16-2.47-21.68-1.33-26.25-2.09-32.72-5.14-10.08-4.94-14.08-14.08-14.08-31.57 0-15.03 3.23-24.35 10.08-29.29 7.8-5.9 17.69-7.61 41.28-7.61 23.77 0 34.05 2.47 40.32 9.51 4.94 5.52 7.23 13.13 7.23 24.16v4.56h-23.39zm72.48 15.97h59.16v17.88h-59.16v35.76h62.96v20.16h-87.31V99.21h86.74v20.16h-62.39v32.9zm186.61 28.53v4.38c0 19.02-1.9 26.06-8.75 32.53-3.99 3.8-10.65 7.04-17.69 8.37-3.99.57-15.22 1.14-26.44 1.14-21.87 0-27.77-.95-36.14-5.71-11.03-5.9-15.79-15.4-17.12-33.47-.57-7.23-.95-22.83-.95-34.43 0-26.44 2.47-36.14 11.03-44.32 9.51-9.13 19.02-11.22 49.84-11.22 20.16 0 28.15 1.71 34.61 7.23 5.33 4.56 8.56 11.22 9.7 20.54.38 3.05.57 6.85.76 15.6h-24.16c-.38-20.35-2.66-22.44-24.35-22.44-16.17 0-23.2 1.33-27.01 4.94-3.24 3.24-4.57 7.8-4.95 17.5-.19 3.23-.19 3.23-.19 20.54 0 41.65 1.71 44.32 28.91 44.32 24.73 0 28.91-3.05 28.91-20.16 0-1.14 0-2.86-.19-5.33h24.18zm125.93-81.59v84.45c0 15.6-1.9 24.16-6.66 30.43-3.8 4.94-9.32 8.75-16.55 10.84-4.94 1.52-14.84 2.28-29.48 2.28-18.64 0-27.2-.95-34.62-4.18-13.69-5.9-18.07-15.02-18.07-38.04V99.21h24.35v85.78c0 18.45 3.8 21.31 28.53 21.31 24.72 0 28.15-2.66 28.15-22.25V99.21h24.35zm27.03 0h62.39c30.62 0 41.08 9.51 41.08 37.85 0 25.29-4.37 32.14-22.82 35.76v.95c14.46.76 21.68 9.32 21.49 24.73v27.58h-24.54v-22.83c.38-13.88-5.51-19.78-19.02-19.4h-34.24v42.23H948.3V99.21zm58.4 63.91c7.61 0 12.55-1.14 15.4-3.8 3.99-3.23 4.95-7.04 4.95-17.88 0-17.88-3.05-21.31-18.64-21.31h-35.76v42.99h34.05zm91.88-10.85h59.16v17.88h-59.16v35.76h62.96v20.16h-87.31V99.21h86.74v20.16h-62.39v32.9z"/><path class="st1" d="M479.39 321.19h-28.81v-50.03h28.81v8.69h-18.21v10.99h16.94v8.69h-16.94v12.9h18.21v8.76zm12.19 0v-50.03h10.61v41.27h20.29v8.76h-30.9zm70.17 0h-28.81v-50.03h28.81v8.69h-18.21v10.99h16.94v8.69h-16.94v12.9h18.21v8.76zm33.44-41.92c-3.99 0-7.08 1.5-9.27 4.5-2.19 3-3.29 7.18-3.29 12.54 0 11.16 4.18 16.73 12.56 16.73 3.52 0 7.77-.88 12.76-2.64v8.9c-4.11 1.71-8.69 2.57-13.76 2.57-7.28 0-12.84-2.21-16.7-6.62-3.86-4.42-5.78-10.76-5.78-19.01 0-5.2.95-9.76 2.84-13.67s4.62-6.91 8.16-9 7.7-3.13 12.47-3.13c4.86 0 9.74 1.17 14.65 3.52l-3.42 8.62c-1.87-.89-3.75-1.67-5.65-2.33s-3.75-.98-5.57-.98zm44.46 41.92h-10.61v-41.2h-13.59v-8.83h37.78v8.83h-13.59v41.2zm33.65-19.2v19.2h-10.61v-50.03h14.58c6.8 0 11.83 1.24 15.09 3.72 3.26 2.47 4.89 6.23 4.89 11.27 0 2.94-.81 5.56-2.43 7.85-1.62 2.3-3.91 4.09-6.88 5.39 7.53 11.25 12.43 18.51 14.72 21.8h-11.77l-11.94-19.2h-5.65zm0-8.62h3.42c3.35 0 5.83-.56 7.43-1.68 1.6-1.12 2.4-2.87 2.4-5.27 0-2.37-.82-4.06-2.45-5.06-1.63-1-4.16-1.51-7.58-1.51h-3.22v13.52zm82.82 2.74c0 8.28-2.05 14.65-6.16 19.1s-9.99 6.67-17.66 6.67-13.55-2.22-17.66-6.67c-4.11-4.45-6.16-10.84-6.16-19.16s2.06-14.69 6.17-19.08c4.12-4.39 10.02-6.59 17.71-6.59 7.69 0 13.57 2.21 17.64 6.64 4.08 4.42 6.12 10.78 6.12 19.09zm-36.52 0c0 5.59 1.06 9.8 3.18 12.63s5.29 4.24 9.51 4.24c8.46 0 12.7-5.62 12.7-16.87 0-11.27-4.21-16.91-12.63-16.91-4.22 0-7.4 1.42-9.55 4.26-2.14 2.85-3.21 7.06-3.21 12.65zm93.03 25.08h-13.48l-21.77-37.85h-.31c.44 6.68.65 11.45.65 14.3v23.54h-9.48v-50.03h13.38l21.73 37.47h.24c-.34-6.5-.51-11.1-.51-13.79v-23.68h9.55v50.04zm73.48 0l-3.63-11.91h-18.24l-3.63 11.91h-11.43l17.66-50.24h12.97l17.73 50.24h-11.43zm-6.16-20.8c-3.35-10.79-5.24-16.9-5.67-18.31-.42-1.41-.72-2.53-.9-3.35-.75 2.92-2.91 10.14-6.47 21.66h13.04zm67.15-4.69c0 8.24-2.34 14.54-7.04 18.92-4.68 4.38-11.45 6.57-20.31 6.57h-14.17v-50.03h15.71c8.17 0 14.51 2.16 19.03 6.47 4.52 4.31 6.78 10.33 6.78 18.07zm-11.02.27c0-10.75-4.75-16.12-14.24-16.12h-5.65v32.58h4.55c10.23 0 15.34-5.48 15.34-16.46zm53.77 25.22l-3.63-11.91h-18.24l-3.63 11.91h-11.43l17.66-50.24h12.97l17.73 50.24h-11.43zm-6.16-20.8c-3.35-10.79-5.24-16.9-5.67-18.31-.42-1.41-.72-2.53-.9-3.35-.75 2.92-2.91 10.14-6.47 21.66h13.04zm60.2-13.63c0 5.38-1.68 9.5-5.05 12.35-3.37 2.85-8.15 4.28-14.36 4.28h-4.55v17.8h-10.61v-50.03h15.98c6.07 0 10.68 1.31 13.84 3.92 3.18 2.61 4.75 6.51 4.75 11.68zm-23.95 7.94h3.49c3.26 0 5.71-.65 7.32-1.94 1.62-1.29 2.43-3.16 2.43-5.63 0-2.49-.68-4.32-2.04-5.51-1.35-1.19-3.48-1.78-6.38-1.78h-4.83v14.86zm54.46 26.49h-10.61v-41.2h-13.59v-8.83h37.78v8.83h-13.59v41.2zm51.85 0h-28.81v-50.03h28.81v8.69h-18.21v10.99h16.94v8.69h-16.94v12.9h18.21v8.76zm22.79-19.2v19.2h-10.61v-50.03h14.58c6.8 0 11.83 1.24 15.09 3.72 3.26 2.47 4.89 6.23 4.89 11.27 0 2.94-.81 5.56-2.43 7.85-1.62 2.3-3.91 4.09-6.88 5.39 7.53 11.25 12.43 18.51 14.72 21.8h-11.77l-11.94-19.2h-5.65zm0-8.62h3.42c3.35 0 5.83-.56 7.43-1.68s2.4-2.87 2.4-5.27c0-2.37-.82-4.06-2.45-5.06-1.63-1-4.16-1.51-7.58-1.51h-3.22v13.52z"/></svg>